<svg width="127" height="60" viewBox="0 0 127 60" fill="none" xmlns="http://www.w3.org/2000/svg">
<g clip-path="url(#clip0_83_9)">
<path d="M55.7117 57.526C55.7117 59.0036 55.5413 59.2614 55.0641 59.2614C53.1894 59.2614 47.8722 58.6772 41.8903 58.6772C35.9084 58.6772 31.0854 59.2614 29.2108 59.2614C28.7165 59.2614 28.5632 59.0208 28.5632 57.526C28.5632 56.0311 28.7336 55.8765 29.2108 55.7047L31.4263 55.1205C32.2443 54.8799 32.4147 54.794 32.4147 53.9693V37.715C32.4147 30.0518 30.6083 27.3198 25.1376 27.3198C24.5582 27.3198 23.7402 27.4057 23.3311 27.5603V53.9521C23.3311 54.7768 23.5016 54.8627 24.3196 55.1033L26.5351 55.6875C27.0293 55.8593 27.1827 56.014 27.1827 57.5088C27.1827 59.0036 27.0123 59.2442 26.5351 59.2442C24.6605 59.2442 19.9056 58.66 13.9408 58.66C7.97594 58.66 2.5735 59.2442 0.681791 59.2442C0.187561 59.2442 0.0341797 59.0036 0.0341797 57.5088C0.0341797 56.014 0.204604 55.7734 0.681791 55.6875L3.4597 55.1033C4.27774 54.9315 4.44816 54.7768 4.44816 53.9521V32.2682C4.44816 31.4435 4.27774 31.3576 3.4597 31.203L0.681791 30.7047C0.187561 30.6188 0.0341797 30.4641 0.0341797 29.1411C0.0341797 27.904 0.204604 27.7322 0.681791 27.5775C7.3965 24.9315 13.7704 20.8937 20.3146 16.203C20.5532 16.0311 20.7237 15.9624 20.9623 15.9624C21.5417 15.9624 23.0926 16.6153 23.0926 17.1995C23.0926 18.5225 22.7687 21.2373 22.7687 26.1858C24.9843 21.3232 30.2163 16.4607 37.4082 16.4607C45.9975 16.4607 51.3148 21.6497 51.3148 30.5672V53.9865C51.3148 54.8112 51.4852 54.983 52.3032 55.1377L55.0811 55.7219C55.5754 55.8078 55.7288 56.0483 55.7288 57.5432L55.7117 57.526Z" fill="#553636"/>
<path d="M57.6716 57.5254C57.6716 56.0477 57.8421 55.79 58.3192 55.7041L61.0972 55.1199C61.9152 54.9481 62.0856 54.7934 62.0856 53.9687V32.2848C62.0856 31.4601 61.9152 31.3742 61.0972 31.2196L58.3192 30.7213C57.825 30.6354 57.6716 30.4807 57.6716 29.1577C57.6716 27.9206 57.8421 27.7488 58.3192 27.5941C65.034 24.9481 72.3111 20.7556 78.8553 16.2196C79.0939 16.0477 79.2644 15.979 79.503 15.979C80.0824 15.979 81.6333 16.6319 81.6333 17.2161C81.6333 18.6251 80.9856 24.2264 80.9856 34.3639V53.9859C80.9856 54.8106 81.1561 54.9824 81.9741 55.1371L84.752 55.7213C85.2462 55.8072 85.3996 56.0477 85.3996 57.5426C85.3996 59.0374 85.2292 59.278 84.752 59.278C82.8773 59.278 77.5601 58.6938 71.5782 58.6938C65.5963 58.6938 60.1257 59.278 58.3192 59.278C57.825 59.278 57.6716 59.0374 57.6716 57.5426V57.5254Z" fill="#553636"/>
<path d="M48.7756 10.5498C48.7756 4.58763 53.1385 0 59.2397 0C65.3408 0 69.7037 4.58763 69.7037 10.5498C69.7037 16.512 65.3408 21.0997 59.2397 21.0997C53.1385 21.0997 48.7756 16.512 48.7756 10.5498Z" fill="#553636"/>
<path d="M106.515 59.9996C94.3296 59.9996 85.4846 51.4257 85.4846 38.5563C85.4846 25.6869 96.2043 16.4429 110.69 16.4429C121.086 16.4429 126.881 21.9755 126.881 27.4051C126.881 30.6181 124.427 33.0924 120.745 33.0924C117.064 33.0924 114.371 30.79 111.986 26.2539C108.952 20.4807 107.81 19.4841 106.021 19.4841C104.231 19.4841 103.072 20.7212 103.072 23.8484C103.072 31.0305 106.754 40.6697 111.662 45.6181C114.116 48.0924 115.752 48.8312 118.376 48.8312C120.745 48.8312 122.467 47.9205 124.512 46.1851C125.245 45.6009 127.29 47.0958 126.966 47.9205C124.427 54.1061 116.655 59.9652 106.515 59.9652V59.9996Z" fill="#553636"/>
</g>
<defs>
<clipPath id="clip0_83_9">
<rect width="127" height="60" fill="white"/>
</clipPath>
</defs>
</svg>
