<svg width="102" height="104" viewBox="0 0 102 104" fill="none" xmlns="http://www.w3.org/2000/svg">
<path d="M83.13 42.0576C89.7816 64.1616 80.961 86.361 63.4224 91.6389C45.8838 96.9167 26.289 83.249 19.6426 61.1626C12.4569 37.284 39.3501 11.5813 39.3501 11.5813C39.3501 11.5813 76.4959 19.9483 83.1476 42.0523L83.13 42.0576Z" fill="#FFCEAD"/>
<path d="M83.1301 42.0576C89.7818 64.1616 38.2423 95.9396 45.0018 78.9401C64.7094 29.3587 39.3503 11.5813 39.3503 11.5813C39.3503 11.5813 76.4961 19.9483 83.1477 42.0523L83.1301 42.0576Z" fill="#FB8739"/>
<path d="M74.8777 84.1868C62.5161 97.6793 38.6821 95.9988 21.6427 80.4315C3.22859 63.6109 13.1522 27.8003 13.1522 27.8003" fill="#553636"/>
<path d="M48.9303 91.995C66.6852 96.4247 85.6335 81.8698 91.2519 59.4843C97.325 35.2948 69.2688 10.9133 69.2688 10.9133" fill="#553636"/>
</svg>
