<svg width="171" height="357" viewBox="0 0 171 357" fill="none" xmlns="http://www.w3.org/2000/svg">
<path fill-rule="evenodd" clip-rule="evenodd" d="M108.552 357V220.636H144.1C158.171 220.636 171 203.238 171 184.187V88.7403C171 76.6394 162.682 66.8711 152.377 66.8711C142.072 66.8711 133.754 76.6394 133.754 88.7403V176.897H108.552V30.8112C108.552 13.8019 96.7986 0 82.314 0C67.8295 0 56.0764 13.8019 56.0764 30.8112V261.361H37.2459V173.204C37.2459 161.103 28.9276 151.335 18.6229 151.335C8.31825 151.335 0 161.103 0 173.204V268.651C0 287.75 12.8291 305.099 26.8998 305.099H56.0764V357H108.552Z" fill="#553636"/>
</svg>
