<svg width="171" height="439" viewBox="0 0 171 439" fill="none" xmlns="http://www.w3.org/2000/svg">
<path fill-rule="evenodd" clip-rule="evenodd" d="M62.4483 439H114.924V305.099H144.1C158.171 305.099 171 287.75 171 268.651V173.204C171 161.103 162.682 151.335 152.377 151.335C142.072 151.335 133.754 161.103 133.754 173.204V261.361H114.924V30.8112C114.924 13.8019 103.17 0 88.6859 0C74.2014 0 62.4483 13.8019 62.4483 30.8112V176.897H37.2459V88.7403C37.2459 76.6394 28.9276 66.8711 18.6229 66.8711C8.31825 66.8711 0 76.6394 0 88.7403V184.187C0 203.238 12.8291 220.636 26.8998 220.636H62.4483V439Z" fill="#553636"/>
</svg>
